<mxfile host="app.diagrams.net" modified="2020-08-14T22:37:40.817Z" agent="5.0 (Macintosh; Intel Mac OS X 10_15_6) AppleWebKit/605.1.15 (KHTML, like Gecko) Version/13.1.2 Safari/605.1.15" etag="GT5P06b1AuTS5v63Plz5" version="13.5.5" type="github">
  <diagram id="V4FTzWyZD4six6puE1jL" name="Page-1">
    <mxGraphModel dx="1259" dy="928" grid="1" gridSize="10" guides="1" tooltips="1" connect="1" arrows="1" fold="1" page="1" pageScale="1" pageWidth="1169" pageHeight="827" math="0" shadow="0">
      <root>
        <mxCell id="0" />
        <mxCell id="1" parent="0" />
      </root>
    </mxGraphModel>
  </diagram>
</mxfile>
